<svg xmlns="http://www.w3.org/2000/svg" width="186.591" height="52.154" viewBox="0 0 186.591 52.154">
  <g id="Grupo_29" data-name="Grupo 29" transform="translate(-52.618 -629.495)">
    <g id="Grupo_14" data-name="Grupo 14">
      <path id="Trazado_99" data-name="Trazado 99" d="M217.887,638.835c1.929-.069,2.561.518,2.6,1.53s-1.151,1.974-2.971,2.04-2.368-.832-2.391-1.436.638-2.059,2.766-2.134" fill="#0075c9"/>
      <path id="Trazado_100" data-name="Trazado 100" d="M214.777,656.924l2.038.107s-1.244,7.688-23.8,13.058c-17.728,4.132-37.067.083-37.067.083l2.644-2.823c8.892,1.7,14.508,2.443,23.227,2.132s19.586-3.188,24.871-6.1a28.962,28.962,0,0,0,8.088-6.453" fill="#0075c9"/>
      <path id="Trazado_101" data-name="Trazado 101" d="M213.948,642.126s-3.4,1.443-4.746,3.62-1.82,5.856-5.472,5.986-5.936-4.056-6.06-7.5,2.958-5.487,7.62-5.653,7.864,1.242,8.658,3.548" fill="#ff9e19"/>
      <path id="Trazado_102" data-name="Trazado 102" d="M213.944,639.181c-3.041-2.635-6.245-1.405-7.664-1.353s-3.477-.584-3.521-1.8c-.1-2.835,4.652-6.26,11.747-6.514,3.96-.142,6.02.7,6.1,3.037s-3.235,6-6.666,6.634" fill="#ff9e19"/>
      <path id="Trazado_103" data-name="Trazado 103" d="M221.039,638.927c-.213-5.99,2.013-9.107,6.777-9.278s8.551,3.447,8.649,6.185c.048,1.321-.328,1.939-1.953,2s-4.712-1.044-6.837-.967a12.6,12.6,0,0,0-6.636,2.062" fill="#ff9e19"/>
      <path id="Trazado_104" data-name="Trazado 104" d="M220.958,642.281c1.64-2.4,3.532-3.578,8.7-3.765,5.18-.185,9.408,1.694,9.551,5.651s-5.928,7.521-8.259,7.6-3.439-2.513-4.424-4.3-3.22-4.761-5.565-5.186" fill="#ff9e19"/>
      <path id="Trazado_105" data-name="Trazado 105" d="M217.646,643.315c4.566-.163,9.3,4.542,9.45,8.595.113,3.15-5.747,4.069-8.284,4.161s-11.1-.931-11.208-4.071c-.158-4.363,7.1-8.578,10.042-8.685" fill="#ff9e19"/>
      <path id="Trazado_106" data-name="Trazado 106" d="M56.242,662.041h8.6l-.85,2.635H52.618l6.267-19.417h2.774Z" fill="#0075c9"/>
      <path id="Trazado_107" data-name="Trazado 107" d="M56.242,662.041h8.6l-.85,2.635H52.618l6.267-19.417h2.774Z" fill="#0075c9"/>
      <path id="Trazado_108" data-name="Trazado 108" d="M77.007,655.716a3.231,3.231,0,0,0-3.117-1.858,6.253,6.253,0,0,0-5.577,4.3c-.752,2.33.416,4.3,2.94,4.3a6.436,6.436,0,0,0,4.178-1.858Zm-2.424,7.768a7.971,7.971,0,0,1-4.5,1.47,5.232,5.232,0,0,1-3-.86c-1.594-1.165-2.255-3.329-1.413-5.936a10.55,10.55,0,0,1,5.281-5.964,7.767,7.767,0,0,1,3.459-.832,4.494,4.494,0,0,1,3.6,1.47l.385-1.193h2.553L76.75,664.676H74.2Z" fill="#0075c9"/>
      <path id="Trazado_109" data-name="Trazado 109" d="M77.007,655.716a3.231,3.231,0,0,0-3.117-1.858,6.253,6.253,0,0,0-5.577,4.3c-.752,2.33.416,4.3,2.94,4.3a6.436,6.436,0,0,0,4.178-1.858Zm-2.424,7.768a7.971,7.971,0,0,1-4.5,1.47,5.232,5.232,0,0,1-3-.86c-1.594-1.165-2.255-3.329-1.413-5.936a10.55,10.55,0,0,1,5.281-5.964,7.767,7.767,0,0,1,3.459-.832,4.494,4.494,0,0,1,3.6,1.47l.385-1.193h2.553L76.75,664.676H74.2Z" fill="#0075c9"/>
      <path id="Trazado_110" data-name="Trazado 110" d="M101.887,649.531c-.88-1.054-2.3-1.637-5.019-1.637H93.955l-4.566,14.147H92.3a10.153,10.153,0,0,0,6.076-1.637,10.816,10.816,0,0,0,4.113-5.436,5.748,5.748,0,0,0-.6-5.437M85.764,664.676l6.267-19.417h5.826c3.079,0,4.861.666,6.067,1.831,1.813,1.775,2.379,4.66,1.34,7.878a14.758,14.758,0,0,1-6.4,7.878,13.549,13.549,0,0,1-7.276,1.83Z" fill="#0075c9"/>
      <path id="Trazado_111" data-name="Trazado 111" d="M101.887,649.531c-.88-1.054-2.3-1.637-5.019-1.637H93.955l-4.566,14.147H92.3a10.153,10.153,0,0,0,6.076-1.637,10.816,10.816,0,0,0,4.113-5.436A5.748,5.748,0,0,0,101.887,649.531ZM85.764,664.676l6.267-19.417h5.826c3.079,0,4.861.666,6.067,1.831,1.813,1.775,2.379,4.66,1.34,7.878a14.758,14.758,0,0,1-6.4,7.878,13.549,13.549,0,0,1-7.276,1.83Z" fill="#0075c9"/>
      <path id="Trazado_112" data-name="Trazado 112" d="M108.1,656.493h7.1a2.462,2.462,0,0,0-2.526-2.829,5.665,5.665,0,0,0-4.575,2.829m-.938,2.22a2.919,2.919,0,0,0,2.945,3.939,6.642,6.642,0,0,0,4.317-1.776l1.192,1.637a9.526,9.526,0,0,1-6.28,2.441c-3.8,0-5.81-2.885-4.548-6.8s4.857-6.8,8.546-6.8c3.634,0,5.321,2.941,4.076,6.8a5.6,5.6,0,0,1-.206.555Z" fill="#0075c9"/>
      <path id="Trazado_113" data-name="Trazado 113" d="M108.1,656.493h7.1a2.462,2.462,0,0,0-2.526-2.829A5.665,5.665,0,0,0,108.1,656.493Zm-.938,2.22a2.919,2.919,0,0,0,2.945,3.939,6.642,6.642,0,0,0,4.317-1.776l1.192,1.637a9.526,9.526,0,0,1-6.28,2.441c-3.8,0-5.81-2.885-4.548-6.8s4.857-6.8,8.546-6.8c3.634,0,5.321,2.941,4.076,6.8a5.6,5.6,0,0,1-.206.555Z" fill="#0075c9"/>
      <path id="Trazado_114" data-name="Trazado 114" d="M118.478,661.209a4.626,4.626,0,0,0,3.39,1.442,2.956,2.956,0,0,0,2.8-1.636c.483-1.5-1.654-1.581-3.362-2.219-1.411-.527-2.5-1.526-1.913-3.357.9-2.8,3.813-4.077,6.143-4.077A4.914,4.914,0,0,1,129.4,652.8l-1.968,1.887a3.374,3.374,0,0,0-2.47-1.027,2.947,2.947,0,0,0-2.887,1.637c-.286.887.642,1.192,1.838,1.526,1.883.527,4.278,1.442,3.409,4.133-.8,2.468-3.591,3.994-6.143,3.994a6.037,6.037,0,0,1-4.689-1.8Z" fill="#0075c9"/>
      <path id="Trazado_115" data-name="Trazado 115" d="M118.478,661.209a4.626,4.626,0,0,0,3.39,1.442,2.956,2.956,0,0,0,2.8-1.636c.483-1.5-1.654-1.581-3.362-2.219-1.411-.527-2.5-1.526-1.913-3.357.9-2.8,3.813-4.077,6.143-4.077A4.914,4.914,0,0,1,129.4,652.8l-1.968,1.887a3.374,3.374,0,0,0-2.47-1.027,2.947,2.947,0,0,0-2.887,1.637c-.286.887.642,1.192,1.838,1.526,1.883.527,4.278,1.442,3.409,4.133-.8,2.468-3.591,3.994-6.143,3.994a6.037,6.037,0,0,1-4.689-1.8Z" fill="#0075c9"/>
      <path id="Trazado_116" data-name="Trazado 116" d="M132.155,660.6a3.1,3.1,0,0,0,2.979,1.858,6.373,6.373,0,0,0,5.715-4.3c.735-2.275-.277-4.3-2.8-4.3a6.673,6.673,0,0,0-4.317,1.858Zm-3.464,10.735h-2.636l6.357-19.7h2.552l-.386,1.193a8.108,8.108,0,0,1,4.553-1.47,4.864,4.864,0,0,1,2.922.832c1.593,1.165,2.273,3.356,1.431,5.964a10.434,10.434,0,0,1-5.244,5.936,8.381,8.381,0,0,1-3.551.86,4.3,4.3,0,0,1-3.483-1.415Z" fill="#0075c9"/>
      <path id="Trazado_117" data-name="Trazado 117" d="M132.155,660.6a3.1,3.1,0,0,0,2.979,1.858,6.373,6.373,0,0,0,5.715-4.3c.735-2.275-.277-4.3-2.8-4.3a6.673,6.673,0,0,0-4.317,1.858Zm-3.464,10.735h-2.636l6.357-19.7h2.552l-.386,1.193a8.108,8.108,0,0,1,4.553-1.47,4.864,4.864,0,0,1,2.922.832c1.593,1.165,2.273,3.356,1.431,5.964a10.434,10.434,0,0,1-5.244,5.936,8.381,8.381,0,0,1-3.551.86,4.3,4.3,0,0,1-3.483-1.415Z" fill="#0075c9"/>
      <path id="Trazado_118" data-name="Trazado 118" d="M147.627,656.493h7.1a2.462,2.462,0,0,0-2.526-2.829,5.665,5.665,0,0,0-4.575,2.829m-.939,2.22a2.92,2.92,0,0,0,2.946,3.939,6.649,6.649,0,0,0,4.318-1.776l1.191,1.637a9.528,9.528,0,0,1-6.28,2.441c-3.8,0-5.81-2.885-4.548-6.8s4.857-6.8,8.546-6.8c3.634,0,5.321,2.941,4.076,6.8a5.42,5.42,0,0,1-.207.555Z" fill="#0075c9"/>
      <path id="Trazado_119" data-name="Trazado 119" d="M147.627,656.493h7.1a2.462,2.462,0,0,0-2.526-2.829A5.665,5.665,0,0,0,147.627,656.493Zm-.939,2.22a2.92,2.92,0,0,0,2.946,3.939,6.649,6.649,0,0,0,4.318-1.776l1.191,1.637a9.528,9.528,0,0,1-6.28,2.441c-3.8,0-5.81-2.885-4.548-6.8s4.857-6.8,8.546-6.8c3.634,0,5.321,2.941,4.076,6.8a5.42,5.42,0,0,1-.207.555Z" fill="#0075c9"/>
      <path id="Trazado_120" data-name="Trazado 120" d="M163.131,652.888a7.713,7.713,0,0,1,4.4-1.526,4.166,4.166,0,0,1,4,2.3c.491,1.054.506,2.386-.219,4.633l-2.059,6.38h-2.636l2.1-6.519c.537-1.665.482-2.441.2-3.024a2.391,2.391,0,0,0-2.279-1.276,6.86,6.86,0,0,0-4.345,1.859l-2.892,8.96h-2.635l4.208-13.038h2.552Z" fill="#0075c9"/>
      <path id="Trazado_121" data-name="Trazado 121" d="M163.131,652.888a7.713,7.713,0,0,1,4.4-1.526,4.166,4.166,0,0,1,4,2.3c.491,1.054.506,2.386-.219,4.633l-2.059,6.38h-2.636l2.1-6.519c.537-1.665.482-2.441.2-3.024a2.391,2.391,0,0,0-2.279-1.276,6.86,6.86,0,0,0-4.345,1.859l-2.892,8.96h-2.635l4.208-13.038h2.552Z" fill="#0075c9"/>
      <path id="Trazado_122" data-name="Trazado 122" d="M173.26,661.209a4.63,4.63,0,0,0,3.391,1.442,2.956,2.956,0,0,0,2.8-1.636c.483-1.5-1.654-1.581-3.362-2.219-1.411-.527-2.5-1.526-1.913-3.357.9-2.8,3.813-4.077,6.143-4.077a4.917,4.917,0,0,1,3.862,1.442l-1.968,1.887a3.374,3.374,0,0,0-2.47-1.027,2.945,2.945,0,0,0-2.887,1.637c-.286.887.642,1.192,1.838,1.526,1.883.527,4.278,1.442,3.409,4.133-.8,2.468-3.591,3.994-6.143,3.994a6.036,6.036,0,0,1-4.689-1.8Z" fill="#0075c9"/>
      <path id="Trazado_123" data-name="Trazado 123" d="M173.26,661.209a4.63,4.63,0,0,0,3.391,1.442,2.956,2.956,0,0,0,2.8-1.636c.483-1.5-1.654-1.581-3.362-2.219-1.411-.527-2.5-1.526-1.913-3.357.9-2.8,3.813-4.077,6.143-4.077a4.917,4.917,0,0,1,3.862,1.442l-1.968,1.887a3.374,3.374,0,0,0-2.47-1.027,2.945,2.945,0,0,0-2.887,1.637c-.286.887.642,1.192,1.838,1.526,1.883.527,4.278,1.442,3.409,4.133-.8,2.468-3.591,3.994-6.143,3.994a6.036,6.036,0,0,1-4.689-1.8Z" fill="#0075c9"/>
      <path id="Trazado_124" data-name="Trazado 124" d="M195.31,655.716a3.231,3.231,0,0,0-3.117-1.858,6.253,6.253,0,0,0-5.577,4.3c-.752,2.33.415,4.3,2.94,4.3a6.435,6.435,0,0,0,4.178-1.858Zm-2.424,7.768a7.972,7.972,0,0,1-4.5,1.47,5.237,5.237,0,0,1-3-.86c-1.593-1.165-2.254-3.329-1.412-5.936a10.547,10.547,0,0,1,5.281-5.964,7.767,7.767,0,0,1,3.459-.832,4.494,4.494,0,0,1,3.6,1.47l.385-1.193h2.552l-4.208,13.037H192.5Z" fill="#0075c9"/>
      <path id="Trazado_125" data-name="Trazado 125" d="M195.31,655.716a3.231,3.231,0,0,0-3.117-1.858,6.253,6.253,0,0,0-5.577,4.3c-.752,2.33.415,4.3,2.94,4.3a6.435,6.435,0,0,0,4.178-1.858Zm-2.424,7.768a7.972,7.972,0,0,1-4.5,1.47,5.237,5.237,0,0,1-3-.86c-1.593-1.165-2.254-3.329-1.412-5.936a10.547,10.547,0,0,1,5.281-5.964,7.767,7.767,0,0,1,3.459-.832,4.494,4.494,0,0,1,3.6,1.47l.385-1.193h2.552l-4.208,13.037H192.5Z" fill="#0075c9"/>
      <path id="Trazado_126" data-name="Trazado 126" d="M86.787,676.076a1.949,1.949,0,0,0-1.881-1.121,3.772,3.772,0,0,0-3.364,2.594,1.812,1.812,0,0,0,1.774,2.594,3.883,3.883,0,0,0,2.52-1.122Zm-1.462,4.686a4.811,4.811,0,0,1-2.713.886,3.16,3.16,0,0,1-1.808-.518,3.052,3.052,0,0,1-.852-3.581,6.359,6.359,0,0,1,3.186-3.6,4.684,4.684,0,0,1,2.087-.5,2.753,2.753,0,0,1,2.134.853l1.518-4.7h1.59l-3.835,11.882H85.093Z" fill="#0075c9"/>
      <path id="Trazado_127" data-name="Trazado 127" d="M86.787,676.076a1.949,1.949,0,0,0-1.881-1.121,3.772,3.772,0,0,0-3.364,2.594,1.812,1.812,0,0,0,1.774,2.594,3.883,3.883,0,0,0,2.52-1.122Zm-1.462,4.686a4.811,4.811,0,0,1-2.713.886,3.16,3.16,0,0,1-1.808-.518,3.052,3.052,0,0,1-.852-3.581,6.359,6.359,0,0,1,3.186-3.6,4.684,4.684,0,0,1,2.087-.5,2.753,2.753,0,0,1,2.134.853l1.518-4.7h1.59l-3.835,11.882H85.093Z" fill="#0075c9"/>
      <path id="Trazado_128" data-name="Trazado 128" d="M91.07,676.545h4.284a1.485,1.485,0,0,0-1.524-1.707,3.416,3.416,0,0,0-2.76,1.707m-.566,1.338a1.762,1.762,0,0,0,1.777,2.377,4.011,4.011,0,0,0,2.605-1.071l.719.987a5.75,5.75,0,0,1-3.789,1.473c-2.293,0-3.505-1.741-2.744-4.1a5.755,5.755,0,0,1,5.156-4.1c2.192,0,3.209,1.774,2.459,4.1-.022.066-.06.184-.125.334Z" fill="#0075c9"/>
      <path id="Trazado_129" data-name="Trazado 129" d="M91.07,676.545h4.284a1.485,1.485,0,0,0-1.524-1.707A3.416,3.416,0,0,0,91.07,676.545Zm-.566,1.338a1.762,1.762,0,0,0,1.777,2.377,4.011,4.011,0,0,0,2.605-1.071l.719.987a5.75,5.75,0,0,1-3.789,1.473c-2.293,0-3.505-1.741-2.744-4.1a5.755,5.755,0,0,1,5.156-4.1c2.192,0,3.209,1.774,2.459,4.1-.022.066-.06.184-.125.334Z" fill="#0075c9"/>
      <path id="Trazado_130" data-name="Trazado 130" d="M109.913,672.344c-.531-.636-1.388-.987-3.028-.987h-1.757l-2.754,8.535h1.756a6.126,6.126,0,0,0,3.666-.988,6.516,6.516,0,0,0,2.481-3.28,3.467,3.467,0,0,0-.364-3.28m-9.726,9.137,3.781-11.714h3.514a4.928,4.928,0,0,1,3.66,1.1,4.521,4.521,0,0,1,.809,4.752,8.906,8.906,0,0,1-3.86,4.753,8.174,8.174,0,0,1-4.39,1.1Z" fill="#0075c9"/>
      <path id="Trazado_131" data-name="Trazado 131" d="M109.913,672.344c-.531-.636-1.388-.987-3.028-.987h-1.757l-2.754,8.535h1.756a6.126,6.126,0,0,0,3.666-.988,6.516,6.516,0,0,0,2.481-3.28A3.467,3.467,0,0,0,109.913,672.344Zm-9.726,9.137,3.781-11.714h3.514a4.928,4.928,0,0,1,3.66,1.1,4.521,4.521,0,0,1,.809,4.752,8.906,8.906,0,0,1-3.86,4.753,8.174,8.174,0,0,1-4.39,1.1Z" fill="#0075c9"/>
      <path id="Trazado_132" data-name="Trazado 132" d="M114.893,680.143a3.711,3.711,0,0,0,3.315-2.594c.464-1.44-.184-2.594-1.64-2.594a3.71,3.71,0,0,0-3.314,2.594c-.464,1.439.184,2.594,1.639,2.594m2.161-6.694c2.326,0,3.5,1.757,2.744,4.1a5.96,5.96,0,0,1-5.391,4.1c-2.326,0-3.5-1.758-2.743-4.1a5.955,5.955,0,0,1,5.39-4.1" fill="#0075c9"/>
      <path id="Trazado_133" data-name="Trazado 133" d="M114.893,680.143a3.711,3.711,0,0,0,3.315-2.594c.464-1.44-.184-2.594-1.64-2.594a3.71,3.71,0,0,0-3.314,2.594C112.79,678.988,113.438,680.143,114.893,680.143Zm2.161-6.694c2.326,0,3.5,1.757,2.744,4.1a5.96,5.96,0,0,1-5.391,4.1c-2.326,0-3.5-1.758-2.743-4.1A5.955,5.955,0,0,1,117.054,673.449Z" fill="#0075c9"/>
      <path id="Trazado_134" data-name="Trazado 134" d="M123.534,674.369a4.65,4.65,0,0,1,2.657-.92,2.511,2.511,0,0,1,2.414,1.389,3.723,3.723,0,0,1-.133,2.795l-1.242,3.848h-1.59l1.27-3.932c.324-1.005.291-1.473.12-1.824a1.441,1.441,0,0,0-1.375-.77,4.135,4.135,0,0,0-2.621,1.121l-1.745,5.405H119.7l2.539-7.865h1.54Z" fill="#0075c9"/>
      <path id="Trazado_135" data-name="Trazado 135" d="M123.534,674.369a4.65,4.65,0,0,1,2.657-.92,2.511,2.511,0,0,1,2.414,1.389,3.723,3.723,0,0,1-.133,2.795l-1.242,3.848h-1.59l1.27-3.932c.324-1.005.291-1.473.12-1.824a1.441,1.441,0,0,0-1.375-.77,4.135,4.135,0,0,0-2.621,1.121l-1.745,5.405H119.7l2.539-7.865h1.54Z" fill="#0075c9"/>
      <path id="Trazado_136" data-name="Trazado 136" d="M132.911,679.122a1.139,1.139,0,0,0,1.254.937,2.407,2.407,0,0,0,1.533-.652,2.85,2.85,0,0,0,.744-1.323l2.685-8.316H140.8l-2.646,8.2a5.324,5.324,0,0,1-1.045,1.991,4.877,4.877,0,0,1-3.457,1.691,2.18,2.18,0,0,1-2.435-1.891Z" fill="#0075c9"/>
      <path id="Trazado_137" data-name="Trazado 137" d="M132.911,679.122a1.139,1.139,0,0,0,1.254.937,2.407,2.407,0,0,0,1.533-.652,2.85,2.85,0,0,0,.744-1.323l2.685-8.316H140.8l-2.646,8.2a5.324,5.324,0,0,1-1.045,1.991,4.877,4.877,0,0,1-3.457,1.691,2.18,2.18,0,0,1-2.435-1.891Z" fill="#0075c9"/>
      <path id="Trazado_138" data-name="Trazado 138" d="M139.7,680.327a3.567,3.567,0,0,1,.15-2.7l1.3-4.016h1.589l-1.377,4.267a1.951,1.951,0,0,0-.055,1.573,1.406,1.406,0,0,0,1.3.687,4.283,4.283,0,0,0,2.57-1.121l1.746-5.406h1.589l-2.539,7.865h-1.539l.232-.719a4.837,4.837,0,0,1-2.6.887,2.475,2.475,0,0,1-2.367-1.322" fill="#0075c9"/>
      <path id="Trazado_139" data-name="Trazado 139" d="M139.7,680.327a3.567,3.567,0,0,1,.15-2.7l1.3-4.016h1.589l-1.377,4.267a1.951,1.951,0,0,0-.055,1.573,1.406,1.406,0,0,0,1.3.687,4.283,4.283,0,0,0,2.57-1.121l1.746-5.406h1.589l-2.539,7.865h-1.539l.232-.719a4.837,4.837,0,0,1-2.6.887A2.475,2.475,0,0,1,139.7,680.327Z" fill="#0075c9"/>
      <path id="Trazado_140" data-name="Trazado 140" d="M155.248,676.076a1.949,1.949,0,0,0-1.881-1.121A3.772,3.772,0,0,0,150,677.549a1.811,1.811,0,0,0,1.773,2.594,3.883,3.883,0,0,0,2.521-1.122Zm-1.462,4.686a4.812,4.812,0,0,1-2.714.886,3.159,3.159,0,0,1-1.807-.518,3.052,3.052,0,0,1-.852-3.581,6.363,6.363,0,0,1,3.186-3.6,4.684,4.684,0,0,1,2.087-.5,2.713,2.713,0,0,1,2.174.887l.232-.72h1.539l-2.538,7.866h-1.539Z" fill="#0075c9"/>
      <path id="Trazado_141" data-name="Trazado 141" d="M155.248,676.076a1.949,1.949,0,0,0-1.881-1.121A3.772,3.772,0,0,0,150,677.549a1.811,1.811,0,0,0,1.773,2.594,3.883,3.883,0,0,0,2.521-1.122Zm-1.462,4.686a4.812,4.812,0,0,1-2.714.886,3.159,3.159,0,0,1-1.807-.518,3.052,3.052,0,0,1-.852-3.581,6.363,6.363,0,0,1,3.186-3.6,4.684,4.684,0,0,1,2.087-.5,2.713,2.713,0,0,1,2.174.887l.232-.72h1.539l-2.538,7.866h-1.539Z" fill="#0075c9"/>
      <path id="Trazado_142" data-name="Trazado 142" d="M160.769,674.369a4.644,4.644,0,0,1,2.656-.92,2.511,2.511,0,0,1,2.414,1.389,3.722,3.722,0,0,1-.132,2.795l-1.242,3.848h-1.59l1.269-3.932c.324-1.005.291-1.473.12-1.824a1.441,1.441,0,0,0-1.375-.77,4.138,4.138,0,0,0-2.621,1.121l-1.745,5.405h-1.589l2.538-7.865h1.54Z" fill="#0075c9"/>
      <path id="Trazado_143" data-name="Trazado 143" d="M160.769,674.369a4.644,4.644,0,0,1,2.656-.92,2.511,2.511,0,0,1,2.414,1.389,3.722,3.722,0,0,1-.132,2.795l-1.242,3.848h-1.59l1.269-3.932c.324-1.005.291-1.473.12-1.824a1.441,1.441,0,0,0-1.375-.77,4.138,4.138,0,0,0-2.621,1.121l-1.745,5.405h-1.589l2.538-7.865h1.54Z" fill="#0075c9"/>
    </g>
  </g>
</svg>
